{"title":"The Stranger Wore a Gun  (Western 1953)  Randolph Scott, Claire ","uid":9499276,"size":505990789,"categoryP":"video","categoryS":"movies","magnet":"?xt=urn:btih:f97e6b59964478997440ecf1227a25ddfe121e70&amp;dn=The+Stranger+Wore+a+Gun++%28Western+1953%29++Randolph+Scott%2C+Claire+&amp;tr=udp%3A%2F%2Ftracker.openbittorrent.com%3A80&amp;tr=udp%3A%2F%2Fopen.demonii.com%3A1337&amp;tr=udp%3A%2F%2Ftracker.coppersurfer.tk%3A6969&amp;tr=udp%3A%2F%2Fexodus.desync.com%3A6969","seeders":2,"leechers":0,"uploader":"BurtonW","files":1,"time":1390178403,"description":" &lt;a href=&quot;http://www.imdb.com/title/tt0046375/?ref_=fn_al_tt_1&quot; rel=&quot;nofollow&quot; target=&quot;_NEW&quot;&gt;http://www.imdb.com/title/tt0046375/?ref_=fn_al_tt_1&lt;/a&gt;\n\n\nA good quality film.\n\n\nEnglish subtitles!\n\n\nStoryline:\n\n   Having been a spy for Quantrill's raiders during the Civil War, Jeff Travis thinking himself a wanted man, flees to Prescott Arizona where he runs into Jules Mourret who knows of his past. He takes a job on the stage line that Mourret is trying to steal gold from. When Mourret's men kill a friend of his he sets out to get Mourret and his men. When his plan to have another gang get Mourret fails, he has to go after them himself.\n\n\n\nTechnical info:\n\nGeneral:\n\nComplete name:                  : The Stranger Wore a Gun  (Western 1953)  Randolph Scott, Claire Trevor &amp; Joan Weldon.mp4\n\nFormat                         : MPEG-4\nFormat profile                 : Base Media / Version 2\nCodec ID                       : mp42\nFile size                      : 483 MiB\nDuration                       : 1h 22mn\nOverall bit rate mode          : Variable\nOverall bit rate               : 821 Kbps\nEncoded date                   : UTC 2014-01-03 00:40:42\nTagged date                    : UTC 2014-01-03 01:11:20\n\n\nVideo:\n\nID                             : 1\nFormat                         : AVC\nFormat/Info                    : Advanced Video Codec\nFormat profile                 : &lt;a class=&quot;__cf_email__&quot; href=&quot;/cdn-cgi/l/email-protection&quot; data-cfemail=&quot;aee3cfc7c0eee29a809e&quot;&gt;[email&amp;#160;protected]&lt;/a&gt;&lt;script cf-hash='f9e31' type=&quot;text/javascript&quot;&gt;\n/* &lt;![CDATA[ */!function(){try{var t=&quot;currentScript&quot;in document?document.currentScript:function(){for(var t=document.getElementsByTagName(&quot;script&quot;),e=t.length;e--;)if(t[e].getAttribute(&quot;cf-hash&quot;))return t[e]}();if(t&amp;&amp;t.previousSibling){var e,r,n,i,c=t.previousSibling,a=c.getAttribute(&quot;data-cfemail&quot;);if(a){for(e=&quot;&quot;,r=parseInt(a.substr(0,2),16),n=2;a.length-n;n+=2)i=parseInt(a.substr(n,2),16)^r,e+=String.fromCharCode(i);e=document.createTextNode(e),c.parentNode.replaceChild(e,c)}}}catch(u){}}();/* ]]&gt; */&lt;/script&gt;\nFormat settings, CABAC         : Yes\nFormat settings, ReFrames      : 4 frames\nCodec ID                       : avc1\nCodec ID/Info                  : Advanced Video Coding\nDuration                       : 1h 22mn\nBit rate mode                  : Variable\nBit rate                       : 656 Kbps\nWidth                          : 560 pixels\nHeight                         : 304 pixels\nDisplay aspect ratio           : 1.85:1\nFrame rate mode                : Variable\nFrame rate                     : 23.976 fps\nMinimum frame rate             : 19.969 fps\nMaximum frame rate             : 59.960 fps\nColor space                    : YUV\nChroma subsampling             : 4:2:0\nBit depth                      : 8 bits\nScan type                      : Progressive\nBits/(Pixel*Frame)             : 0.161\nStream size                    : 386 MiB (80%)\nWriting library                : x264 core 130 r2273 b3065e6\nEncoding settings              : Deleted\nEncoded date                   : UTC 2014-01-03 00:40:42\nTagged date                    : UTC 2014-01-03 01:11:20\nColor primaries                : BT.601 NTSC\nTransfer characteristics       : BT.709\nMatrix coefficients            : BT.601\n\nAudio:\n\nID                             : 2\nFormat                         : AAC\nFormat/Info                    : Advanced Audio Codec\nFormat profile                 : LC\nCodec ID                       : 40\nDuration                       : 1h 22mn\nBit rate mode                  : Variable\nBit rate                       : 155 Kbps\nMaximum bit rate               : 205 Kbps\nChannel(s)                     : 2 channels\nChannel positions              : Front: L R\nSampling rate                  : 48.0 KHz\nCompression mode               : Lossy\nDelay relative to video        : 67ms\nStream size                    : 91.2 MiB (19%)\nLanguage                       : English\nEncoded date                   : UTC 2014-01-03 00:40:42\nTagged date                    : UTC 2014-01-03 01:11:19\n\nText:\n\nID                             : 3\nFormat                         : mp4s\nCodec ID                       : E0\nDuration                       : 1h 21mn\nBit rate mode                  : Variable\nBit rate                       : 3 769 bps\nMaximum bit rate               : 4 108 Mbps\nDelay relative to video        : 67ms\nStream size                    : 2.20 MiB (0%)\nLanguage                       : English\nEncoded date                   : UTC 2014-01-03 00:40:42\nTagged date                    : UTC 2014-01-03 01:11:19\n\n","torrent":{"xt":"urn:btih:f97e6b59964478997440ecf1227a25ddfe121e70","amp;dn":"The+Stranger+Wore+a+Gun++%28Western+1953%29++Randolph+Scott%2C+Claire+","amp;tr":["udp%3A%2F%2Ftracker.openbittorrent.com%3A80","udp%3A%2F%2Fopen.demonii.com%3A1337","udp%3A%2F%2Ftracker.coppersurfer.tk%3A6969","udp%3A%2F%2Fexodus.desync.com%3A6969"],"infoHash":"f97e6b59964478997440ecf1227a25ddfe121e70","infoHashBuffer":{"type":"Buffer","data":[249,126,107,89,150,68,120,153,116,64,236,241,34,122,37,221,254,18,30,112]},"announce":[],"urlList":[]}}